<?xml version="1.0" encoding="UTF-8" standalone="no"?>
<!-- Created with Inkscape (http://www.inkscape.org/) -->

<svg
   width="320"
   height="60"
   viewBox="0 0 84.666667 15.875"
   version="1.1"
   id="svg1"
   inkscape:version="1.3.2 (091e20e, 2023-11-25)"
   sodipodi:docname="bonaire-patacona-logo-allargat-dark.svg"
   inkscape:export-filename="bonaire-patacona-logo-allargat.png"
   inkscape:export-xdpi="300"
   inkscape:export-ydpi="300"
   xmlns:inkscape="http://www.inkscape.org/namespaces/inkscape"
   xmlns:sodipodi="http://sodipodi.sourceforge.net/DTD/sodipodi-0.dtd"
   xmlns="http://www.w3.org/2000/svg"
   xmlns:svg="http://www.w3.org/2000/svg">
  <sodipodi:namedview
     id="namedview1"
     pagecolor="#ffffff"
     bordercolor="#000000"
     borderopacity="0.25"
     inkscape:showpageshadow="2"
     inkscape:pageopacity="0.0"
     inkscape:pagecheckerboard="0"
     inkscape:deskcolor="#d1d1d1"
     inkscape:document-units="mm"
     inkscape:zoom="2.0342918"
     inkscape:cx="141.32682"
     inkscape:cy="16.713433"
     inkscape:window-width="1512"
     inkscape:window-height="449"
     inkscape:window-x="0"
     inkscape:window-y="50"
     inkscape:window-maximized="0"
     inkscape:current-layer="layer1"
     inkscape:export-bgcolor="#ffffffff" />
  <defs
     id="defs1" />
  <g
     inkscape:label="Capa 1"
     inkscape:groupmode="layer"
     id="layer1">
    <g
       id="group-R5"
       transform="matrix(0.00609874,0.02599663,-0.02599663,0.00609874,140.54393,2.7523248)">
      <g
         id="g2929"
         transform="matrix(0.30823732,0,0,0.30823732,-1038.2437,3043.8093)">
        <path
           id="path3-3"
           d="m 13694.3,5265.9 c -5.4,110.5 -119.6,419.5 -342.5,927 -289.1,2539.2 -551.7,4291.9 -787.7,5258.1 -387.8,1678.1 -730.9,2917.8 -1029.1,3718.9 -651.8,1813.7 -1149,3025.4 -1491.6,3635.1 -531.83,973.3 -846.35,1488.4 -943.51,1545.3 -203.45,255.7 -396.53,432 -579.22,528.8 -216.38,79.3 -349.39,95.2 -399.03,47.7 -165.3,-63.1 -310.85,-228.8 -436.66,-497.2 l -173.16,-463 C 7406.5,19612.1 7322.41,19188.1 7259.56,18694.4 7067.03,17125.3 7083.5,15326.2 7308.96,13297 7554.56,11365 7988.8,9569.6 8611.67,7910.6 9108.51,6512.5 9933.49,4650.1 11086.6,2323.3 l 444.8,-251.5 c 705.6,25 1409.4,332.1 2111.4,921.2 l -157.4,2090.4 c 151.2,-24.3 220.8,36.5 208.9,182.5"
           style="fill:#f17b08;fill-opacity:1;fill-rule:nonzero;stroke:none"
           transform="matrix(0.13333333,0,0,-0.13333333,0,3066.6667)" />
        <path
           id="path4-8"
           d="m 10198.7,18546.7 c -26,45.7 -52.4,91 -79.2,136.2 14.5,-31.7 29.3,-64.2 44.4,-97.5 18.8,-36.7 30.4,-49.6 34.8,-38.7"
           style="fill:#f68959;fill-opacity:1;fill-rule:nonzero;stroke:none"
           transform="matrix(0.13333333,0,0,-0.13333333,0,3066.6667)" />
        <path
           id="path5-0"
           d="m 10880.5,10559.3 c -96.7,576.3 -203.5,1178.8 -320.2,1807.5 -20.1,505.5 -55.8,909 -107.1,1210.4 -172.7,1033.2 -424,2348.5 -754.08,3946 l -114.14,695.3 c -13.84,104.8 -15.29,152.6 -4.35,143.4 101.39,24.7 314.08,-316.3 638.07,-1023.1 l 1576.6,-3879.2 c -8,108.6 -18.1,205.2 -30.1,290.1 l 449.6,-1490.7 c 63.3,-408.3 104.3,-649.7 122.9,-723.8 47.3,-175.3 122.6,-491.3 225.8,-948 18.3,-134.4 37.9,-254.5 58.7,-360.2 l 276.8,-1280.2 147.5,-934.4 105,-876.4 35,-624.4 c 1.4,-26.1 1.9,-63.6 1.3,-112.5 l 157.8,-273.4 c 2.9,156.9 1.7,286.7 -3.5,389.6 -13.3,372.7 -28.1,644.4 -44.6,815.2 l -221.9,1867 c -12.1,101.3 -46.3,295.1 -102.7,581.4 -77.2,336 -149.8,682 -217.8,1038.1 -6,26.8 -11.6,52.1 -17,75.9 l -8.5,119.5 c -41.6,361.5 -113.6,711.6 -216,1050.2 -83.3,251.8 -205.3,668.9 -365.8,1251.3 -30.4,86.5 -53.8,141.8 -70.2,166.1 -19.9,69.6 -34.3,117 -43,141.6 -109.5,313.5 -184.9,533.7 -226.3,661 l -77.6,330.8 37.8,-86.6 c -12.9,71.7 -41.6,175.5 -86.3,311.4 -56.2,216.6 -181.3,559.1 -375.2,1027.7 -79,184.7 -147.2,340.3 -204.7,466.7 -188.2,452 -415.6,983.5 -682.5,1594.7 5.2,3.9 -27.7,74.4 -98.2,211.2 -40.2,93.3 -81.2,184.7 -122.9,274.2 -2.5,7.7 -4.9,15.5 -7.6,23 -25.8,79.1 -80.5,212.7 -164.2,400.6 31.4,-50.9 62.2,-102 92.6,-153.4 -167.32,366.6 -293.39,626.7 -378.12,780.4 -18.73,46.1 -145.28,243.8 -379.67,593.2 -341.11,489.1 -612.7,768.5 -814.77,838.1 -180.49,111 -360.17,70.9 -539.05,-120 -139.91,-134.5 -256.8,-314 -350.67,-538.7 -37.25,-74.8 -53.6,-205.3 -49.07,-391.3 l -22.69,-709.1 c 9.3,79.1 19.36,154.7 30.15,226.7 -2.2,-42.7 -4.07,-86.4 -5.57,-131.2 6.3,-36.8 13.35,-47.4 21.14,-31.8 87.65,290.4 151.79,459.8 192.43,508.1 65.27,105.3 126.17,163.1 182.69,173.6 109.55,-15.7 249.13,-200.1 418.74,-553.2 42.77,-93.3 80.48,-191 113.13,-292.9 64.07,-258.6 199.63,-712.7 406.69,-1362.3 44.09,-118.7 170.4,-668.1 378.93,-1648.1 37.41,-155.6 78.97,-314.4 124.69,-476.5 179.26,-590.8 298.98,-943.9 359.17,-1059.4 l 14.2,-65.9 c 362.15,-1264 618.45,-2201.2 768.85,-2811.7 l 612.5,-2721.6 c 15.1,-38.4 14,-6.5 -3.2,95.8 l -319.5,1574.2"
           style="fill:#e7952f;fill-opacity:1;fill-rule:nonzero;stroke:none"
           transform="matrix(0.13333333,0,0,-0.13333333,0,3066.6667)" />
        <path
           id="path6-2"
           d="m 11928,10263.9 c -291.3,1277.9 -498.8,2076.7 -622.7,2396.5 l 877.1,-4387.5 c -26.4,606.9 -111.2,1270.5 -254.4,1991"
           style="fill:#f68959;fill-opacity:1;fill-rule:nonzero;stroke:none"
           transform="matrix(0.13333333,0,0,-0.13333333,0,3066.6667)" />
        <path
           id="path7-4"
           d="m 7514.05,15780.6 c -2.38,24.7 -5.95,49 -11.03,72.8 l 11.03,-72.8"
           style="fill:#f68959;fill-opacity:1;fill-rule:nonzero;stroke:none"
           transform="matrix(0.13333333,0,0,-0.13333333,0,3066.6667)" />
        <path
           id="path8-8"
           d="m 8774.09,8588.5 c -178.81,475.4 -303.59,847.9 -374.32,1117.3 -16.88,37.2 -57,241.5 -120.36,612.9 -46.88,120.4 -152.66,587 -317.34,1399.8 -70.68,372.8 -121.53,691.7 -152.55,956.9 -129.25,1228.2 -208.76,2138 -238.52,2729.5 l -56.95,375.7 c 1.8,-18.7 2.99,-37.7 3.24,-57 -14,-170.5 -18.96,-272.7 -14.9,-306.8 l 94.37,-1674.5 149.31,-1389.5 c 354.5,-1899.1 754.04,-3341.2 1198.61,-4326.3 -12.54,31.5 -26.15,69.1 -40.87,113.2 l -129.72,448.8"
           style="fill:#f68959;fill-opacity:1;fill-rule:nonzero;stroke:none"
           transform="matrix(0.13333333,0,0,-0.13333333,0,3066.6667)" />
        <path
           id="path9-3"
           d="m 8944.68,8026.5 c 13.37,-33.6 25.5,-60.2 36.38,-79.5 -12.16,26.1 -24.29,52.7 -36.38,79.5"
           style="fill:#f68959;fill-opacity:1;fill-rule:nonzero;stroke:none"
           transform="matrix(0.13333333,0,0,-0.13333333,0,3066.6667)" />
        <path
           id="path10-9"
           d="m 9382.59,10723.1 c 74.33,-266.3 126.71,-469.1 157.04,-608.1 22.66,-81.1 49.27,-120.4 79.83,-118.1 l -138.73,454.6 c -34.21,92.9 -66.91,183.5 -98.14,271.6"
           style="fill:#f68959;fill-opacity:1;fill-rule:nonzero;stroke:none"
           transform="matrix(0.13333333,0,0,-0.13333333,0,3066.6667)" />
        <path
           id="path11-0"
           d="m 8918.93,12584.1 -209.85,2011 c 64.76,-1198 142.81,-1991.7 234.13,-2380.9 56.95,-268.4 121.05,-515.7 192.3,-741.9 68.11,-226.8 150.48,-476.5 247.08,-749.2 -67.88,243.2 -154.06,539.3 -258.63,888.6 -143.09,572.4 -211.43,896.6 -205.03,972.4"
           style="fill:#f68959;fill-opacity:1;fill-rule:nonzero;stroke:none"
           transform="matrix(0.13333333,0,0,-0.13333333,0,3066.6667)" />
        <path
           id="path12-5"
           d="m 10163,8736.8 c 97,-337 187.9,-595.6 272.9,-775.8 l -696.61,2443.6 c 209.13,-867 350.41,-1423 423.71,-1667.8"
           style="fill:#f68959;fill-opacity:1;fill-rule:nonzero;stroke:none"
           transform="matrix(0.13333333,0,0,-0.13333333,0,3066.6667)" />
        <path
           id="path13-2"
           d="m 11107.1,14049 384.7,-452.5 c 60.8,-39.3 105.5,-64.6 133.9,-76.1 -76.1,99.9 -142.6,183.3 -199.4,250.2 -82.9,95.4 -189.3,188.2 -319.2,278.4"
           style="fill:#f68959;fill-opacity:1;fill-rule:nonzero;stroke:none"
           transform="matrix(0.13333333,0,0,-0.13333333,0,3066.6667)" />
        <path
           id="path14-2"
           d="m 13220.2,5975.3 c 18.1,-16.3 20.5,-14 7.2,6.8 -11.8,17.3 -41.6,56.5 -89.4,117.3 3.5,-6.7 6.9,-13.5 10.5,-20.4 23.8,-42.2 47.7,-76.7 71.7,-103.7"
           style="fill:#f68959;fill-opacity:1;fill-rule:nonzero;stroke:none"
           transform="matrix(0.13333333,0,0,-0.13333333,0,3066.6667)" />
        <path
           id="path15-7"
           d="m 13006.6,6350.9 524.2,-745.4 -10.1,21.8 114.9,-172.2 c 57.4,-41.8 -6.8,121.4 -192.8,489.9 -261,423.1 -458.7,727 -593.1,911.6 -270.2,372.6 -566,663 -887.2,871.2 l -108.6,75.5 c -112.7,52.3 -223.1,74 -331.3,65 -37,-14.8 -37.2,-69.5 -0.6,-164.1 l 332.9,-123.4 c 57.2,-26.1 112.3,-58 165.2,-95.8 95.9,-74 182.5,-144.5 259.9,-211.5 17.6,-20.3 34.9,-40.6 51.5,-61.3 l 51.8,-60.7 -108.3,64.5 c 42.9,-38.5 115.3,-116 217.3,-232.6 96.5,-130.2 170.8,-236 222.8,-317.4 -0.1,-22.4 -44.1,11.2 -131.6,100.4 l 134.3,-171.8 c 126.3,-134.4 202.6,-219.5 228.9,-255.5 80.9,-100.5 144.7,-180.4 191.3,-239.7 -53.3,104 -97.1,187.8 -131.4,251.5"
           style="fill:#f68959;fill-opacity:1;fill-rule:nonzero;stroke:none"
           transform="matrix(0.13333333,0,0,-0.13333333,0,3066.6667)" />
        <path
           id="path16-3"
           d="m 12229.6,7243 45.4,-27 c -25.9,23.2 -41,32.2 -45.4,27"
           style="fill:#f68959;fill-opacity:1;fill-rule:nonzero;stroke:none"
           transform="matrix(0.13333333,0,0,-0.13333333,0,3066.6667)" />
        <path
           id="path17-7"
           d="m 12523.9,6828.6 c 21.8,-23.2 41.6,-43.8 59.6,-62.2 l -27.3,35 c -18.9,22.6 -29.7,31.6 -32.3,27.2"
           style="fill:#f68959;fill-opacity:1;fill-rule:nonzero;stroke:none"
           transform="matrix(0.13333333,0,0,-0.13333333,0,3066.6667)" />
        <path
           id="path18-9"
           d="m 12640.1,5190.4 c 72.7,-253.2 114.8,-404.4 126.4,-453.5 46.9,-189.9 73,-310.3 78.4,-361.2 -25.3,273.9 -55.8,541.5 -91.8,802.7 l -113,12"
           style="fill:#f68959;fill-opacity:1;fill-rule:nonzero;stroke:none"
           transform="matrix(0.13333333,0,0,-0.13333333,0,3066.6667)" />
        <path
           id="path19-0"
           d="m 13713.7,3103 c 0.2,26.3 -2.8,74.8 -8.9,145.7 -0.6,6.8 0.1,18.6 1.8,35.4 l -143.1,552.2 -30,611.7 c -9.5,136.4 -18,286.8 -25.4,451.3 -2.8,42.4 -6,77 -9.5,103.6 l -9.6,3.8 -2.7,108.2 c -13.5,-2.3 -56.8,-12 -129.9,-29.2 -9.8,-3.6 -14.2,-8.5 -13.3,-14.7 0.7,-2.4 1.6,-4.7 2.4,-7 l -30,12 c 44.7,-182.4 78.1,-368.1 100.2,-557 6.2,-32.5 27.1,-226.2 62.6,-581.1 15.6,-122.9 32.2,-261.3 49.8,-414.9 l 0.2,-6.3 c 1.1,-19.2 2.5,-36.4 4.4,-51.5 2.8,-18.4 5.5,-35.7 7.9,-51.8 4.8,-42.2 9.6,-85.5 14.5,-129.8 2.3,-17 4.8,-33.4 7.2,-49.4 -1.6,-99.5 -5.8,-152.1 -12.7,-157.6 -25.5,-84.7 -58.6,-145 -99.1,-180.9 5.3,-6.2 -97.7,-88.8 -309,-247.9 197.9,79.5 323.6,133.6 377,162.3 46.5,21.1 82.3,47.2 107.4,78.2 7.2,8.3 13.8,16.4 20,24.4 0.1,-0.1 0.2,0 0.2,0.1 0,0.1 0,0.1 0,0.1 35.4,45.1 56.4,85.4 62.6,120.7 3.7,18.6 5.4,41.7 5,69.4"
           style="fill:#f68959;fill-opacity:1;fill-rule:nonzero;stroke:none"
           transform="matrix(0.13333333,0,0,-0.13333333,0,3066.6667)" />
        <path
           id="path20-2"
           d="m 13631.3,2982.2 c -416.6,-277.9 -824.6,-547.7 -1173.8,-693.2 -33.9,-14.1 -67.2,-27 -100.1,-38.9 114.5,52.6 203.3,101.2 266,145.7 -279.4,-95 -509.9,-125.8 -691.5,-92.6 -239.2,49.4 -422,155.5 -548.2,318.2 -6.8,1.4 -1.8,-11.4 15,-38.4 43.8,-76.6 78.4,-133 104,-169.4 -70.4,47.2 -198.9,217.7 -385.4,511.7 9.4,-35.6 20,-71.6 31.7,-108 -38.5,66.5 -79.2,136.9 -122.2,211.6 -27.4,41.3 -96.6,178.6 -207.8,411.7 -11.5,22.7 -18.6,34 -21.2,33.8 70.5,-201.3 134.3,-368.3 191.5,-501.3 -3.6,-6.5 -7.3,-17.1 -11.2,-32.3 -6.3,-3.8 -16,5.8 -29.2,29 l -88.1,229.1 -119,174.6 c -0.2,-6.4 -22.6,47.4 -67.1,161.3 l -313.3,550.1 -278.5,556.2 c -5.5,-1.4 39.3,-109.1 134.3,-323.3 177.1,-339.7 484.7,-980.9 922.9,-1923.1 -1383.07,2782.5 -2746.93,5558.7 -3388.85,8418.4 -655.29,2919.4 -558.77,5929.5 -385.01,7736.3 0.11,1.2 0.23,2.3 0.34,3.5 0.77,1.4 1.66,5.3 2.68,11.8 31.84,205.2 60.99,373 87.45,503.3 8.42,41.8 15.78,64.6 22.07,68.5 7.03,2.8 10.45,-17.4 10.23,-60.6 -4.67,-131.3 -6.8,-220.3 -6.41,-267.1 4.83,51.3 13.18,121 25.07,209.1 1.84,16 4.47,20.8 7.88,14.4 0.71,-109.2 5.68,-214.7 14.78,-316.6 -26.08,-318.4 -38.03,-479.1 -35.87,-482.1 -2.72,-66.1 -3.41,-137.4 -2.08,-213.9 8.46,-367.6 14.45,-597.1 17.97,-688.6 12.24,145.4 19.51,244.4 21.78,296.8 1.86,20.1 7.29,160.5 16.29,421.2 -0.81,-5.6 5.03,99.6 17.51,315.6 l 4.1,56.4 c 4.06,-58.6 8.57,-117.7 14.02,-177.7 -18.54,205.3 20.45,644.9 117,1318.8 36.48,264.6 96.88,522.1 181.19,772.5 92.81,242.7 215.22,411.2 367.24,505.3 93.1,41.2 155.87,56.3 188.33,45.4 l 200.73,-84.3 c 320.98,-245.4 727.22,-773.8 1235.37,-1745.6 806.49,-1542.2 1850.79,-4161.6 2488.49,-6726.6 563,-2264.9 809.1,-4487.9 958.5,-6048.9 -511.6,758 -1305.7,1661.2 -1671.5,1661.2 -5.8,0 -11.6,-0.2 -17.4,-0.6 v 0 c -10.6,-0.8 -21,-2.5 -31.3,-4.8 -2.5,13.3 -4.9,26.3 -7.3,39 l -0.1,5.2 c 0,-1.5 0.1,-3.3 0.1,-5 -57.3,305.3 -89,461.2 -95.1,467.5 -12.5,63.3 -66.1,240.7 -160.6,532.2 3.2,-16.6 6.6,-34.2 10,-52.9 4,-10.1 18.9,-123.1 44.7,-339 22,-139.5 34.9,-225.6 38.7,-258.2 8.2,-57.3 16.9,-156.1 26,-296.4 4.9,-82.5 7.4,-150.4 7.4,-203.7 -137.4,-254.7 -55.1,-902.5 112.9,-1694.3 55.4,-426.3 90.6,-661.1 105.8,-704 22,-108.9 43.6,-200.9 64.7,-275.8 l 35.7,-109.1 c 11.5,-44.7 26.3,-95.6 44.8,-153 6.4,-20.9 15.1,-47.7 26.2,-80.4 l -16.8,21.6 c 33,-146.7 71.1,-289.9 114.2,-429.5 175.6,-542.6 309.6,-972.8 402,-1290.4 26.4,-81.7 57,-168.1 91.6,-259.3 -42.3,257.2 -82,481.5 -119.1,673 -5,36.2 -45.7,217.4 -122.3,543.7 l -20.7,114.4 c -8.8,537.8 0.9,951 378.7,978.6 14.9,1.1 30.9,1.6 47.3,1.6 123.2,0 276.4,-28.9 435.8,-59.2 v 0 c 133.5,-25.4 272.3,-52 391,-57.9 99,-1061.3 147.6,-1567.3 195.2,-2062.3 z M 7553.31,19038.8 c -0.84,-42.9 -1.12,-86.3 -1.07,-130.1 l -15.3,-134.6 c 1.86,87.4 7.31,175.6 16.37,264.7 z M 13651.4,5415.3 c -7.5,16.9 -15.2,33.2 -23.5,49.1 -19,40.3 -64.2,109.3 -135.4,206.8 19.2,-32.4 42.7,-78.3 70.5,-137.9 42.3,-89.7 66.6,-158.3 73,-206.1 8,-48.3 1.1,-89.6 -20.8,-123.9 -4.1,-6.2 -9,-12.3 -14.2,-18.4 -0.1,-0.1 -0.2,-0.1 -0.3,-0.2 v 0 c -29.5,-10.2 -68.6,-15.4 -117.8,-15.4 -113.5,0 -258.6,27.3 -414.1,56.9 v 0 c -155.5,29.6 -321.7,61.4 -459.3,61.4 -19,0 -38.2,-0.6 -56.4,-1.9 -55.8,-4.1 -105.3,-14.6 -149.4,-30.5 50.8,47.6 91.6,77.6 122.4,90 227.4,54.4 362.3,91.6 404.9,111.6 54.7,49.4 83.1,113.4 85.1,192.1 -2,58.8 -42,122.9 -120.1,192.3 -161.3,134 -279.7,219.9 -355.3,258 15.5,30.7 32.7,64.7 51.9,102.2 17.7,38.2 30.2,67.4 37.5,87.5 7.4,17.6 -1.8,14.9 -27.7,-8.1 -1.7,1.1 -18.9,-16.8 -51.6,-53.8 -69.4,-80.3 -153.4,-207.6 -252.1,-381.8 -18.3,-32.5 -34.2,-61.8 -47.6,-88.3 l -12.5,-18.3 c 30.7,151.8 95,285.1 192.9,399.8 -149.7,49.3 -234.7,84.1 -255,104.3 -30.4,22.4 -76.5,100.2 -138.3,233.2 13.2,-61 13.4,-104 0.7,-128.9 -22.4,-28.2 -53.2,-33.4 -92.5,-15.6 -29.2,27.3 -55.2,62.3 -77.9,105.1 -42.7,79.6 -82.3,167.4 -118.9,263.2 -0.5,-74.7 7.9,-162.5 25.1,-263.3 l -170,667.2 2.5,-117.2 c 5.3,-162.9 11.8,-313.9 19.6,-453.1 -108.7,565.3 -154,989.2 -90.8,1176.5 l 1.1,-3.3 c 88.1,-12.8 179.2,-44 273.2,-93.4 40.8,-21.5 88.9,-51 144.3,-88.2 14.8,-10 29.8,-20.6 45.1,-31.8 l 129,-96.4 c -19.6,23.5 -52.2,55.6 -98,96.4 -127.6,113.6 -208.2,180.1 -241.7,199.5 -49.2,34.7 -118.8,66 -208.6,94.1 13.1,12.7 28.1,21.3 45,25.7 v 0 c 4.7,1.2 10,2 15.8,2.5 v 0 c 2.5,0.2 5.3,0.3 8.2,0.3 418,0 1760.1,-1700.2 1990,-2362.9 4.5,-12.9 8.4,-25.2 12,-37 z m 111.3,-2457.4 v -0.1 c -48.6,506.2 -97,1008.5 -197.9,2090.3 27,3.6 53,9.2 77.2,17.6 v 0 c 159.5,55.3 193.4,206.2 116.4,428 -48.9,141 -151.2,335.5 -286.6,553.7 -147.2,1568.8 -389.4,3916.7 -984.9,6312.5 -640.1,2574.7 -1688,5203.7 -2499.31,6755.1 -755.28,1444.3 -1322.35,1990.1 -1772.46,1990.1 -29.38,0 -58.24,-2.4 -86.42,-6.9 h -0.01 c -471.35,-76.3 -718.58,-752.4 -890.16,-2536.5 -174.4,-1813.5 -271.93,-4838.7 387.54,-7776.7 659.39,-2937.5 2075.08,-5784.3 3486.12,-8622.4 6.6,-13.2 17.4,-23.7 30.8,-29.9 l 337.6,-153.8 c 8.4,-3.9 17.5,-5.8 26.6,-5.8 1.4,0 2.8,0 4.3,0.1 305,20.2 619.2,40.7 995.3,197.4 369.6,154 797.5,439.1 1218.4,720 v 0 l 9.5,6.3 h -0.1 c 19.7,13.1 30.6,36 28.3,59.5 l -0.2,1.5"
           style="fill:#1a1918;fill-opacity:1;fill-rule:nonzero;stroke:none"
           transform="matrix(0.13333333,0,0,-0.13333333,0,3066.6667)" />
        <path
           id="path21-3"
           d="m 9279.88,7166.8 c -174.58,435.2 -338.23,857.2 -490.96,1266 -289.21,781.8 -498.11,1434.4 -626.69,1957.7 -147.71,569.5 -267.85,1208.8 -360.45,1917.8 -38.51,289.9 -78.82,652.7 -120.92,1088.3 l -180.36,2131.7 c -25.89,275.6 -51.03,461.3 -75.43,557.3 l -1.3,-9.8 c -19.24,-637.2 45.53,-1686.1 194.31,-3146.6 50.22,-494.5 114.58,-965.3 192.77,-1412.8 -22.36,21.6 -49.66,47.9 -82.09,79 -71.9,61.8 -114.58,99.5 -128.05,113.3 -3.58,2.9 -5.05,2.9 -4.42,-0.1 l 200.17,-340.3 c 9.76,-16.4 28.21,-42.2 55.17,-77 60.28,-319.5 127.89,-626.7 202.95,-921.4 172.94,-697 463.58,-1565.5 871.93,-2605.6 220.5,-571 540.04,-1357.5 958.6,-2359.4 300.69,-688 498.29,-1112.7 592.89,-1274.3 -64.5,211.9 -180.5,529.5 -348.2,952.8 l -849.92,2083.4"
           style="fill:#1a1918;fill-opacity:1;fill-rule:nonzero;stroke:none"
           transform="matrix(0.13333333,0,0,-0.13333333,0,3066.6667)" />
        <path
           id="path22-9"
           d="m 8509.33,20278 0.88,-11.4 c 22.84,-170.5 115.03,-565.5 276.56,-1184.9 596.7,-2165.6 951.85,-3501 1065.44,-4006.1 78.76,-321.8 174.19,-735.8 286.39,-1241.9 l 526.6,-2475.3 c 108.7,-489.1 194.9,-835.7 258.7,-1039.8 -106.8,1118.3 -408.9,2714.1 -906.1,4787.3 -639.03,2561.7 -1141.85,4285.8 -1508.47,5172.1"
           style="fill:#1a1918;fill-opacity:1;fill-rule:nonzero;stroke:none"
           transform="matrix(0.13333333,0,0,-0.13333333,0,3066.6667)" />
        <path
           id="path23-9"
           d="m 11283.7,9150.5 c 3,-14.3 8.2,-33.7 15.6,-58.2 13.5,-41.1 26.3,-80.2 38.4,-117.6 -21.7,110.2 -38.9,172.2 -51.7,185.9 -2.4,-2.2 -3.1,-5.5 -2.3,-10.1"
           style="fill:#1a1918;fill-opacity:1;fill-rule:nonzero;stroke:none"
           transform="matrix(0.13333333,0,0,-0.13333333,0,3066.6667)" />
        <path
           id="path24-7"
           d="m 7506.95,17250.9 c 3.23,9.2 4.71,27.8 4.44,55.7 -0.31,6.6 -0.66,14.8 -1.04,24.5 -1.45,-17.2 -2.96,-35 -4.56,-53.6 -0.87,-14.9 -0.48,-23.7 1.16,-26.6"
           style="fill:#1a1918;fill-opacity:1;fill-rule:nonzero;stroke:none"
           transform="matrix(0.13333333,0,0,-0.13333333,0,3066.6667)" />
        <path
           id="path25-0"
           d="m 7518.38,16642.7 -9.95,367.8 c 0.01,-21.5 -0.16,-46.4 -0.5,-74.7 -0.16,-14.4 -0.59,-34.1 -1.28,-59 -0.13,-7.1 -0.22,-13.8 -0.28,-20.1 -0.22,-26.4 -0.15,-44 0.23,-52.8 1.37,-49.7 5.3,-103.5 11.78,-161.2"
           style="fill:#1a1918;fill-opacity:1;fill-rule:nonzero;stroke:none"
           transform="matrix(0.13333333,0,0,-0.13333333,0,3066.6667)" />
        <path
           id="path26-3"
           d="m 11442.5,14282.9 h -0.1 v 0 l -10.3,-26.5 c -16.9,-42.5 -34,-98.5 -51.3,-167.9 -13.7,-56.8 -23.1,-98.5 -28.3,-125 -5.9,-29.9 -12.1,-66.7 -18.5,-110.5 l 55.3,-42.4 53.2,472.3"
           style="fill:#1a1918;fill-opacity:1;fill-rule:nonzero;stroke:none"
           transform="matrix(0.13333333,0,0,-0.13333333,0,3066.6667)" />
        <path
           id="path27-9"
           d="m 11307.5,13645.6 c -1,-7.9 -3.2,-31.5 -6.5,-70.5 -4.1,-50.9 -6.4,-81.2 -7,-90.9 -0.8,-20.8 -0.9,-38.7 -0.3,-53.6 -0.4,-8.9 4.3,-27.2 14.1,-54.9 2.9,-7.6 5.9,-15.1 9.3,-22.6 8.9,-18.6 14.5,-29.6 16.9,-33.2 l 41.3,366.1 c 72.5,-67.1 139.4,-113.3 200.7,-138.4 l -478.9,523.7 c 52.5,-123.4 107.1,-212.5 163.7,-267.3 19.7,-22.3 39.1,-43.1 58.1,-62.7 -3.7,-29.9 -7.5,-61.7 -11.4,-95.7"
           style="fill:#1a1918;fill-opacity:1;fill-rule:nonzero;stroke:none"
           transform="matrix(0.13333333,0,0,-0.13333333,0,3066.6667)" />
        <path
           id="path28-8"
           d="m 9507.22,7389.8 c -93.72,246.7 -59,117.2 -97.45,245.6 17,-135 85.11,-386 160.12,-621.6 75.02,-235.6 163.46,-452.9 256.85,-654.3 93.39,-201.5 192.66,-386.2 268.96,-516.6 76.3,-130.3 76.3,-130.3 31,-40.7 0,0 -73.8,187.4 -152.7,384.5 -78.91,197.1 -157.87,407 -240.92,628.8 -83.06,221.9 -170.58,456 -225.86,574.3"
           style="fill:#1a1918;fill-opacity:1;fill-rule:nonzero;stroke:none"
           transform="matrix(0.13333333,0,0,-0.13333333,0,3066.6667)" />
        <path
           id="path29-6"
           d="m 10076.8,6469.6 c 14.2,-27.7 14.2,-27.7 5.8,-8.8 0,0 -13.9,39.1 -27.3,83.1 -13.5,44 -29.2,91.7 -48.7,142.6 -19.53,50.9 -45.27,104.1 -62.93,130.4 -29.45,56.6 -21.27,25 -33.07,55.2 4.41,-33.1 21.99,-92.9 41.04,-147.4 19.05,-54.5 42.52,-102.4 65.46,-145.6 23,-43.3 45.6,-81.8 59.7,-109.5"
           style="fill:#1a1918;fill-opacity:1;fill-rule:nonzero;stroke:none"
           transform="matrix(0.13333333,0,0,-0.13333333,0,3066.6667)" />
        <path
           id="path30-5"
           d="m 7879.05,15723.3 c 62.21,-410.2 102.55,-594 121.01,-551.5 -0.13,25.1 -3.15,54.9 -9.06,89.6 -59.38,307 -99.29,544.6 -119.73,712.7 -23.98,188.2 -43.96,380.6 -60.01,577.1 l -0.01,-27.1 c 6.43,-215.9 29.03,-482.8 67.8,-800.8"
           style="fill:#1a1918;fill-opacity:1;fill-rule:nonzero;stroke:none"
           transform="matrix(0.13333333,0,0,-0.13333333,0,3066.6667)" />
        <path
           id="path31-7"
           d="m 7811.26,16551.2 0.99,1628 c -16.93,-217.6 -26.41,-436.9 -28.44,-657.8 -3.31,-352.1 1.2,-613.6 13.51,-784.5 4.25,-62.3 8.92,-124.2 13.94,-185.7"
           style="fill:#1a1918;fill-opacity:1;fill-rule:nonzero;stroke:none"
           transform="matrix(0.13333333,0,0,-0.13333333,0,3066.6667)" />
        <path
           id="path32-6"
           d="m 7482.86,18793.1 c -0.13,4.5 -0.21,9.8 -0.26,15.7 -1.29,-13.7 -2.34,-26.1 -3.13,-37.2 1.37,-6.7 2.5,0.4 3.39,21.5"
           style="fill:#1a1918;fill-opacity:1;fill-rule:nonzero;stroke:none"
           transform="matrix(0.13333333,0,0,-0.13333333,0,3066.6667)" />
        <path
           id="path33-2"
           d="m 13453.6,5723.9 c 13.8,-18.4 26.7,-35.9 38.9,-52.7 -15.9,27 -28.9,44.6 -38.9,52.7"
           style="fill:#1a1918;fill-opacity:1;fill-rule:nonzero;stroke:none"
           transform="matrix(0.13333333,0,0,-0.13333333,0,3066.6667)" />
        <path
           id="path34-7"
           d="m 12178.4,6986.4 c -45.7,39.4 -59.3,50.3 -72,60.1 -12.8,9.9 -25,18.9 -36.5,27.2 -11.6,8.2 -22.5,15.6 -28.2,18.6 -10.2,6.7 -9.6,-1.6 -14.1,2.2 3.4,-5 11.6,-14.4 20.3,-24.6 8.7,-10.2 18,-21.1 28,-32.8 9.9,-11.6 20.4,-24.1 45.5,-54.3 25.1,-30.1 63.4,-74.9 103.8,-111 40.5,-36.2 78.8,-68 114.5,-95.9 35.7,-28 68.5,-52.4 89.3,-71.2 20.9,-18.8 20.9,-18.8 7.4,-5.9 0,0 -25.9,27.1 -52.3,60.1 -26.5,33 -56.1,69.2 -89.2,108.2 -33.1,39.1 -70.9,79.8 -116.5,119.3"
           style="fill:#1a1918;fill-opacity:1;fill-rule:nonzero;stroke:none"
           transform="matrix(0.13333333,0,0,-0.13333333,0,3066.6667)" />
      </g>
    </g>
    <path
       d="m 55.505819,13.14979 -0.01604,-3.5972782 1.600041,-0.00713 q 0.327878,-0.00147 0.563127,0.2335746 0.237122,0.2350186 0.238577,0.5610216 l 0.0018,0.400948 q 0.0015,0.327875 -0.233555,0.565001 -0.233145,0.23524 -0.561033,0.236703 l -0.801892,0.0036 0.0071,1.60004 z m 0.789243,-2.000798 0.400945,-0.0018 q 0.163006,-8.04e-4 0.28051,-0.119278 0.119381,-0.120433 0.118649,-0.283447 l -0.0018,-0.400932 Q 57.09259,10.18053 56.972216,10.064906 56.853649,9.9473963 56.690653,9.9481305 l -0.400947,0.00179 z m 2.407091,1.986548 -0.01249,-2.799133 q -0.0015,-0.327877 0.231682,-0.5631202 0.235019,-0.237126 0.562896,-0.2385873 l 0.801893,-0.00358 q 0.327878,-0.00147 0.563128,0.2335747 0.237122,0.2350182 0.238575,0.5610238 l 0.01249,2.799133 -0.798145,0.0036 -0.0071,-1.600039 -0.801894,0.0036 0.0071,1.600041 z m 0.789242,-2.000798 0.801895,-0.0036 -0.0036,-0.801896 q -7.72e-4,-0.162982 -0.121128,-0.278603 -0.118569,-0.11751 -0.281566,-0.116776 -0.164862,6.601e-4 -0.282384,0.119298 -0.117506,0.1167 -0.116796,0.279691 z m 2.804291,1.984777 -0.01425,-3.1963346 -0.798148,0.00356 -0.0018,-0.4009475 2.398185,-0.010699 0.0018,0.4009475 -0.798146,0.00356 0.01425,3.1963306 z m 2.000987,-0.0089 -0.01249,-2.799136 Q 64.2827,9.983586 64.515865,9.7483432 64.750883,9.5112171 65.078761,9.5097559 l 0.801893,-0.00358 q 0.327877,-0.00147 0.563128,0.2335748 0.237122,0.2350182 0.238578,0.5610243 l 0.01249,2.799133 -0.798147,0.0036 -0.0071,-1.600042 -0.801894,0.0036 0.0071,1.600043 z m 0.78924,-2.000799 0.801893,-0.0036 -0.0036,-0.801893 Q 65.883434,10.141319 65.763078,10.025698 65.64451,9.9081884 65.481513,9.9089225 65.316651,9.9095821 65.19913,10.02822 q -0.117529,0.116698 -0.116795,0.279691 z m 4.80172,1.177708 q -0.04884,0.798385 -0.794587,0.801705 l -0.801893,0.0036 q -0.32788,0.0015 -0.564995,-0.231686 -0.235249,-0.235015 -0.23671,-0.562906 l -0.0089,-2.001005 q -0.0014,-0.3222527 0.227963,-0.5612259 0.231261,-0.2389815 0.566635,-0.2404748 l 0.801893,-0.00358 q 0.753181,-0.00337 0.801704,0.7945867 l -0.400945,0.0018 Q 69.429159,9.8913125 69.078802,9.892875 l -0.400948,0.00179 q -0.164862,6.596e-4 -0.282384,0.119298 -0.117506,0.116699 -0.116795,0.279688 l 0.0089,2.000989 q 7.11e-4,0.161129 0.117413,0.278646 0.118567,0.117509 0.285313,0.116759 l 0.400945,-0.0018 q 0.352236,-0.0016 0.395431,-0.398971 z m 1.583813,-2.8062494 0.801895,-0.00358 q 0.327875,-0.00147 0.563125,0.2335745 0.237126,0.2350186 0.238578,0.5610239 l 0.0089,2.000985 q 0.0015,0.32413 -0.233574,0.563127 -0.23315,0.237115 -0.561022,0.238577 l -0.801894,0.0036 q -0.327876,0.0015 -0.564992,-0.231687 -0.235249,-0.235038 -0.236711,-0.562905 l -0.0089,-2.000988 q -0.0015,-0.3279011 0.231675,-0.5631439 0.235019,-0.2371262 0.562894,-0.2385876 z m 0.0036,0.7981464 0.0089,2.000987 q 7.1e-4,0.16113 0.117413,0.278648 0.118567,0.11751 0.285312,0.11676 0.166761,-7.5e-4 0.282385,-0.119298 0.117509,-0.118567 0.116795,-0.279691 l -0.009,-2.00099 Q 72.27613,10.112813 72.15576,9.9971895 72.037193,9.8796798 71.874194,9.8804139 71.709332,9.8810736 71.591812,9.9997117 71.474282,10.11641 71.475018,10.2794 Z m 2.410669,2.788441 -0.01604,-3.5972786 0.181733,-7.673e-4 2.225354,1.9873599 -0.0089,-1.9972405 0.400945,-0.00179 0.01604,3.5972815 -0.183608,8.58e-4 -2.223478,-1.987365 0.0089,1.99724 z m 3.597278,-0.01603 -0.01249,-2.799135 q -0.0015,-0.3278751 0.231682,-0.5631179 0.235018,-0.2371261 0.562898,-0.2385873 l 0.801893,-0.00358 q 0.327874,-0.00147 0.563124,0.2335743 0.237124,0.2350185 0.238579,0.5610219 l 0.01249,2.799136 -0.798146,0.0036 -0.0071,-1.60004 -0.801893,0.0036 0.0071,1.600042 z m 0.789242,-2.000798 0.801893,-0.0036 -0.0036,-0.801893 Q 79.069747,10.082538 78.949374,9.9669166 78.830806,9.849407 78.667811,9.8501412 78.502948,9.8508009 78.385424,9.9694387 78.26792,10.086115 78.268629,10.249127 Z"
       id="text2929"
       style="font-weight:bold;font-size:40px;line-height:1.25;font-family:Krungthep;-inkscape-font-specification:'Krungthep Bold';white-space:pre;fill:#ffffff;stroke-width:0.119911"
       aria-label="PATACONA" />
    <g
       id="g3"
       transform="matrix(0.04717709,0,0,0.04717709,-5.9436165,-25.711564)"
       style="fill:#ffffff">
      <path
         d="m 596,685 c -19.693,8.75231 -32.48582,28.01651 -38.60744,48.0832 -5.14865,16.51335 -7.58015,35.78091 1.41607,51.44128 4.00322,7.92138 13.079,13.29193 21.98333,11.14152 C 591.87147,793.29741 601.13187,784.5316 605,774 c 0.39218,10.07839 8.48558,20.31663 19.23945,19.76289 8.02879,-0.16124 14.11317,-6.40752 17.84805,-12.93057 3.5817,-1.70364 0.93158,8.22667 5.7324,9.90678 5.69489,6.57398 16.59986,4.45373 21.00279,-2.48937 5.55562,-7.34177 5.446,-15.35555 7.30894,-24.36434 3.13253,-10.38151 5.87801,-22.13574 8.57122,-34.05466 3.23131,-11.3189 6.08384,-18.75763 4.42311,-30.07055 -1.70424,-7.965 -11.67904,-13.6451 -18.97608,-8.91405 -8.61073,5.04503 -9.64498,6.19582 -9.32165,15.86539 -1.65506,14.40558 -10.30739,37.17499 -12.54566,51.47256 -2.08209,6.01392 -7.6695,9.76271 -11.47772,14.60677 -2.30418,2.59216 -4.84768,4.26295 -4.20165,-0.59345 -0.70411,-34.28329 15.58421,-73.91265 11.57638,-82.12018 -4.00861,-4.56436 -10.81122,-5.00123 -16.26543,-7.0166 -9.01482,-2.27677 -18.80819,-3.30894 -27.60159,0.4078 C 598.86672,683.95514 597.43082,684.4709 596,685 Z m 13,30 c 1.37357,7.39446 -0.58192,15.15097 -1.27,22.62264 -1.40321,5.76192 -3.0038,11.4565 -4.16718,17.27277 -2.13874,6.70581 -4.84898,13.48796 -9.16245,19.08468 -4.32893,5.77122 -14.46857,3.85535 -14.49057,-3.98322 -1.60632,-10.45829 1.94729,-20.7268 3.91126,-30.88072 2.30542,-7.29972 6.18523,-13.98772 9.54488,-20.81959 2.86011,-4.34595 9.57503,-10.35469 14.42682,-5.42059 0.51045,0.63956 0.899,1.36855 1.20724,2.12403 z"
         id="path2866"
         sodipodi:nodetypes="cccccccccccccccccccccccccccccc"
         style="fill:#ffffff;fill-opacity:1" />
      <path
         d="m 676,678 c 16.7166,5.10296 29.83671,-34.23759 11,-37 -16.56,-2.42 -21.15,30.38 -11,37 z"
         id="path2851"
         style="fill:#ffffff;fill-opacity:1"
         sodipodi:nodetypes="ccc" />
      <path
         d="m 196.44798,640.32803 c 5.427,-2.30946 10.17307,-5.73299 15,-9 4.28065,32.99291 -4.54641,72.29254 -8,106 -1.51,16.38 -0.12,38.56 -15.92,44.08 -15.8,5.52 -26.44,20.69 -18.38,36.22 8.06,15.54 30.56,6.37 41.3,-1.3 3.27,-2.74 6.01,-7.04 9,-10 25.89759,27.84195 49.32896,37.20373 87.77,22.77 28.14,-12.42 48.44,-31.71 54.45,-63.55 6.02,-31.83 -24.46,-61.25 -57.22,-59.22 8.85,-10.36 15.32,-19.41 21.08,-31.92 5.75,-12.52 9.91,-27.81 10.92,-42.08 1.01,-14.27 -2.06,-31.86 -9.08,-43.92 -7.02,-12.05 -16.05,-19.04 -29.92,-22.08 -13.87,-3.04 -33.4,-0.04 -46.31,4.69 -12.9,4.74 -21.67,12.28 -32.44,20.56 -10.77,8.28 -15.81,17.75 -27.5,25.5 -11.69,7.76 -15.4,28.29 5.25,23.25 m 84,50 c -3.27,4.39 -7.77,8.66 -12,12 -6.87,5.43 -14.13,10.61 -22,14 v 12 c 7.71,-2.97 15.65,-5.15 24,-6 8.43,-1.72 17.97,-1.05 26,1 16.78,2.4 25.63,16.45 25,33 -0.54285,14.36745 -12.52467,39.71184 -36,45 -6.76,2.4 -11.94,2.68 -19,2 -10.36,0 -19.02,-3.7 -27,-10 -2.77,-2.18 -7.44,-5.43 -8,-9 6.41713,-34.12839 9.50383,-68.66753 13.93,-103.07 1.4,-11.36 2.12,-23.99 3.85,-35.15 1.72,-11.16 1.9,-24.96 3.22,-35.78 1.32,-10.82 0.77,-27.6 13,-26 12.23,1.6 18.02,5.01 24.75,14.25 6.74,9.23 7.66,19.6 8.25,30.75 0.59,11.15 -1.98,23.93 -4.93,34.07 -2.94,10.15 -6.77,18.45 -13.07,26.93 z"
         id="path2800"
         style="fill:#ffffff;fill-opacity:1"
         sodipodi:nodetypes="ccsscccccccscscscccccccccccccccsscscc" />
      <g
         fill="#082e39"
         fill-opacity="1"
         stroke="None"
         id="g2868"
         transform="translate(72.701309,-51.496761)"
         style="fill:#ffffff">
        <path
           d="m 653.86594,812.49676 c 0.88,-4.65 2.61,-8.87 4,-13 1.81,-7.18 3.7,-11.71 6,-19 2.3,-7.29 -3.67,-12.81 -6,-19 -2.33,-6.19 6.13,-14.17 -5,-17 -11.13,-2.83 -6.96,8.65 -12,13 -5.04,4.35 -12.24,-9.77 -10,-14 -3.88,-0.67 -5.91,-5.67 -10,-6 2.72,11.13 2.92,28.97 18,30 -1.91,8.08 -4.71,15.84 -7.22,23.78 -2.52,7.93 -5.77,15.31 -7.45,23.55 -1.68,8.24 -3.89,19.28 -1.25,27.59 2.64,8.32 10.35,12.51 18.7,11.86 8.35,-0.65 15,-9.22 9.97,-16.53 -5.02,-7.32 0.81,-17.65 2.25,-25.25 z"
           id="path2868"
           style="fill:#ffffff" />
      </g>
      <path
         d="m 527.43275,704.59647 c -2.66,1.79 -6.23,6.62 -8,9 -10.88,17.53 -12.20807,22.14011 -28,53.47001 2.04,-11.7 3.20198,-17.68404 5.67,-33.80001 4.61,-12.74 -4.77,-24.7 -18.44,-18.44 -13.67,6.26 -10.88537,17.99671 -11.23,31.77 -0.30979,12.38101 -0.96,25.75 -5.22,36.78 -4.26,11.03 -6.5,28.34 8.22,27.22 17.11136,-2.57231 26.23985,-36.13174 34.23,-50.77 31.70379,-54.93755 26.18221,-29.42981 8.7,28.7 -4.83,14.18 12.08,21.93 22.82,11.82 13.26536,-40.60481 7.86364,-32.97856 15.32,-78.68 3.18,-13.5 -11.09,-24.46 -24.07,-17.07 z"
         id="path2874"
         sodipodi:nodetypes="ccccssscscccc"
         style="fill:#ffffff;fill-opacity:1" />
      <path
         d="m 421.43804,703.82502 c -14.07709,-0.24755 -23.54816,1.90005 -31.76389,9.18367 -24.08148,21.34932 -31.64236,107.05416 13.86781,109.21787 58.5976,2.78592 61.71244,-93.85585 42.0552,-110.66208 -4.94653,-4.22911 -15.765,-7.59318 -24.15912,-7.73946 m -24.30182,55.75022 c 15.41904,-65.98323 38.02664,-44.4083 32.29786,6.89253 -0.77705,37.3098 -40.54721,78.8309 -32.29786,-6.89253 z"
         id="path2876"
         sodipodi:nodetypes="cssscccc"
         style="fill:#ffffff;fill-opacity:1;stroke-width:0.985703" />
      <path
         d="m 793,693 c -31.3,4.98 -54.4,43.48 -56,73 -0.3,5.52 -0.38,11.48 0,17 2.39,41.41 60.45,47.62 84,20 -5.9,20.55 -29.48,23.16 -48.99,21.99 C 752.5,823.83 730.6,816.9 711,815 c -5.52,-0.53 -11.07,-2.17 -16,-3 -5.57,-0.43 -10.63,-1.45 -16,-2 -41.98515,-3.17711 -28.75522,-5.13652 -68,-2 -10.35,0.97 -20.74,2.66 -31,4 -0.94,0.26 -3.26,1.13 -4,2 14.76786,0.87259 22.8734,-2.14748 52,3 9.74,0.75 19.76,3.67 28.98,6.02 9.22,2.36 17.88,4.14 26.8,7.2 8.91,3.06 18.06,4.92 27,8 8.93,3.09 17.05,4.9 26.15,7.85 9.09,2.95 18.41,4.01 28,6 9.58,2 22.38,2.32 32.07,0.93 9.69,-1.39 18.78,-1.27 26.25,-7.75 7.47,-6.48 10.39,-15.6 7.08,-25.58 -3.31,-9.98 0.92,-20.81 1.66,-30.66 0.75,-9.85 -13.26,2.29 -17.29,6.69 -4.03,4.4 -17.35,9.87 -23.7,10.3 -3.51,0.63 -6.5,0.87 -10,0 -8.37,-2.07 -12.17,-6.76 -14,-15 -0.73,-3.31 -2.92,-13.08 0,-16 2.39,-2.39 10.47,-1 14,-1 5.81,-0.56 13.06,-2.29 19,-4 17.58,-5.05 28.16,-18.55 35.07,-35.93 6.91,-17.38 -4.39,-40.43 -25.07,-42.07 -5.76,-0.46 -11.57,0.14 -17,1 m -19,63 c -4.78842,-20.47177 31.4712,-53.81886 32,-30 0.23,10.37 -5.93,17.68 -10.75,24.25 -4.83,6.56 -18.16,13.67 -21.25,5.75 z"
         id="path2871"
         style="fill:#ffffff;fill-opacity:1"
         sodipodi:nodetypes="cccccccccccccccccssscscccsccscccccc" />
      <path
         d="m 541,838 c 2.81,-0.34 6.53,-1 10,-1 18.42,0 35.51,4.59 53,8 8.14452,1.56856 8.71966,2.5055 19,4 4.53,0.66 9,2.05 13,3 3.8,0.9 9.6,1.67 13,2 h 9 33 9 c 2.85,-0.28 8.28,-1.05 11,-2 -37.47769,-15.78454 -82.31821,-23.39918 -123,-28 -27.64,0.37 -60.96,-1.01 -79,22 10.74,-2.82 20.51,-7.77 32,-8 z"
         id="path2903"
         style="fill:#ffffff;fill-opacity:1"
         sodipodi:nodetypes="csccccssccccc" />
    </g>
  </g>
</svg>
